<mxfile host="app.diagrams.net" agent="Mozilla/5.0 (Windows NT 10.0; Win64; x64) AppleWebKit/537.36 (KHTML, like Gecko) Chrome/136.0.0.0 Safari/537.36 Edg/136.0.0.0" version="26.2.15">
  <diagram name="第 1 页" id="xh4dDEV0Z3U1ccfdmhcR">
    <mxGraphModel dx="1034" dy="578" grid="0" gridSize="10" guides="1" tooltips="1" connect="1" arrows="1" fold="1" page="0" pageScale="1" pageWidth="827" pageHeight="1169" math="0" shadow="0">
      <root>
        <mxCell id="0" />
        <mxCell id="1" parent="0" />
        <mxCell id="zvaevBFsoiHge6Q9c9Pc-1" value="" style="rounded=0;whiteSpace=wrap;html=1;" vertex="1" parent="1">
          <mxGeometry x="8" y="135" width="468" height="295" as="geometry" />
        </mxCell>
        <mxCell id="zvaevBFsoiHge6Q9c9Pc-2" value="内网" style="text;html=1;align=center;verticalAlign=middle;whiteSpace=wrap;rounded=0;" vertex="1" parent="1">
          <mxGeometry x="18" y="152" width="60" height="30" as="geometry" />
        </mxCell>
        <mxCell id="zvaevBFsoiHge6Q9c9Pc-3" value="WEBVPN" style="rounded=1;whiteSpace=wrap;html=1;" vertex="1" parent="1">
          <mxGeometry x="303" y="253" width="120" height="60" as="geometry" />
        </mxCell>
        <mxCell id="zvaevBFsoiHge6Q9c9Pc-36" style="edgeStyle=orthogonalEdgeStyle;rounded=0;orthogonalLoop=1;jettySize=auto;html=1;exitX=0.75;exitY=0;exitDx=0;exitDy=0;entryX=0;entryY=0.75;entryDx=0;entryDy=0;dashed=1;" edge="1" parent="1" source="zvaevBFsoiHge6Q9c9Pc-4" target="zvaevBFsoiHge6Q9c9Pc-5">
          <mxGeometry relative="1" as="geometry" />
        </mxCell>
        <mxCell id="zvaevBFsoiHge6Q9c9Pc-37" value="tcp://innerlp:port" style="edgeLabel;html=1;align=center;verticalAlign=middle;resizable=0;points=[];" vertex="1" connectable="0" parent="zvaevBFsoiHge6Q9c9Pc-36">
          <mxGeometry x="0.3367" y="4" relative="1" as="geometry">
            <mxPoint x="-40" y="-6" as="offset" />
          </mxGeometry>
        </mxCell>
        <mxCell id="zvaevBFsoiHge6Q9c9Pc-4" value="10.69.6.151(Server)" style="rounded=0;whiteSpace=wrap;html=1;" vertex="1" parent="1">
          <mxGeometry x="64" y="253" width="120" height="60" as="geometry" />
        </mxCell>
        <mxCell id="zvaevBFsoiHge6Q9c9Pc-34" style="edgeStyle=orthogonalEdgeStyle;rounded=0;orthogonalLoop=1;jettySize=auto;html=1;exitX=0;exitY=0.25;exitDx=0;exitDy=0;entryX=0.25;entryY=0;entryDx=0;entryDy=0;dashed=1;" edge="1" parent="1" source="zvaevBFsoiHge6Q9c9Pc-5" target="zvaevBFsoiHge6Q9c9Pc-4">
          <mxGeometry relative="1" as="geometry" />
        </mxCell>
        <mxCell id="zvaevBFsoiHge6Q9c9Pc-35" value="tcp://127.0.0.1:lp" style="edgeLabel;html=1;align=center;verticalAlign=middle;resizable=0;points=[];" vertex="1" connectable="0" parent="zvaevBFsoiHge6Q9c9Pc-34">
          <mxGeometry x="-0.0642" y="-4" relative="1" as="geometry">
            <mxPoint x="35" y="-11" as="offset" />
          </mxGeometry>
        </mxCell>
        <mxCell id="zvaevBFsoiHge6Q9c9Pc-5" value="Client" style="rounded=0;whiteSpace=wrap;html=1;" vertex="1" parent="1">
          <mxGeometry x="662" y="34" width="120" height="60" as="geometry" />
        </mxCell>
        <mxCell id="zvaevBFsoiHge6Q9c9Pc-8" value="" style="endArrow=classic;html=1;rounded=0;entryX=0.388;entryY=-0.213;entryDx=0;entryDy=0;entryPerimeter=0;" edge="1" parent="1" target="zvaevBFsoiHge6Q9c9Pc-9">
          <mxGeometry width="50" height="50" relative="1" as="geometry">
            <mxPoint x="723" y="179" as="sourcePoint" />
            <mxPoint x="721" y="190" as="targetPoint" />
          </mxGeometry>
        </mxCell>
        <mxCell id="zvaevBFsoiHge6Q9c9Pc-18" value="code&lt;div&gt;&lt;br&gt;&lt;/div&gt;" style="edgeLabel;html=1;align=center;verticalAlign=middle;resizable=0;points=[];" vertex="1" connectable="0" parent="zvaevBFsoiHge6Q9c9Pc-8">
          <mxGeometry x="-0.0392" y="4" relative="1" as="geometry">
            <mxPoint x="17" y="1" as="offset" />
          </mxGeometry>
        </mxCell>
        <mxCell id="zvaevBFsoiHge6Q9c9Pc-9" value="ws://vpncas.ahut.edu.cn/ws-sp/77726476706e69737468656265737421+aes-cfb-128b-noPadding(10.69.6.151,wrdvpnistehbest!)" style="text;html=1;align=center;verticalAlign=middle;whiteSpace=wrap;rounded=0;" vertex="1" parent="1">
          <mxGeometry x="542" y="275" width="469" height="30" as="geometry" />
        </mxCell>
        <mxCell id="zvaevBFsoiHge6Q9c9Pc-10" value="wrdws2tcp Client ip(10.69.6.151):sp -lp lp -C cookie" style="edgeLabel;html=1;align=center;verticalAlign=middle;resizable=0;points=[];" vertex="1" connectable="0" parent="1">
          <mxGeometry x="744.0864261306804" y="152.31540096351887" as="geometry" />
        </mxCell>
        <mxCell id="zvaevBFsoiHge6Q9c9Pc-11" value="" style="endArrow=classic;html=1;rounded=0;exitX=0.5;exitY=1;exitDx=0;exitDy=0;" edge="1" parent="1" source="zvaevBFsoiHge6Q9c9Pc-5">
          <mxGeometry width="50" height="50" relative="1" as="geometry">
            <mxPoint x="534" y="328" as="sourcePoint" />
            <mxPoint x="722" y="144" as="targetPoint" />
          </mxGeometry>
        </mxCell>
        <mxCell id="zvaevBFsoiHge6Q9c9Pc-17" value="shell&lt;div&gt;&lt;br&gt;&lt;/div&gt;" style="edgeLabel;html=1;align=center;verticalAlign=middle;resizable=0;points=[];" vertex="1" connectable="0" parent="zvaevBFsoiHge6Q9c9Pc-11">
          <mxGeometry x="-0.2" y="1" relative="1" as="geometry">
            <mxPoint x="21" y="7" as="offset" />
          </mxGeometry>
        </mxCell>
        <mxCell id="zvaevBFsoiHge6Q9c9Pc-23" value="&lt;span style=&quot;font-size: 11px; text-wrap-mode: nowrap; background-color: rgb(255, 255, 255);&quot;&gt;wrdws2tcp Server innerIp:port -sp serverPort&lt;/span&gt;" style="text;html=1;align=center;verticalAlign=middle;whiteSpace=wrap;rounded=0;" vertex="1" parent="1">
          <mxGeometry x="140" y="356" width="60" height="30" as="geometry" />
        </mxCell>
        <mxCell id="zvaevBFsoiHge6Q9c9Pc-27" value="" style="endArrow=classic;startArrow=classic;html=1;rounded=0;exitX=1;exitY=0.25;exitDx=0;exitDy=0;entryX=0;entryY=0.25;entryDx=0;entryDy=0;" edge="1" parent="1" target="zvaevBFsoiHge6Q9c9Pc-9">
          <mxGeometry width="50" height="50" relative="1" as="geometry">
            <mxPoint x="423" y="282" as="sourcePoint" />
            <mxPoint x="460" y="96" as="targetPoint" />
          </mxGeometry>
        </mxCell>
        <mxCell id="zvaevBFsoiHge6Q9c9Pc-28" value="ws" style="edgeLabel;html=1;align=center;verticalAlign=middle;resizable=0;points=[];" vertex="1" connectable="0" parent="zvaevBFsoiHge6Q9c9Pc-27">
          <mxGeometry x="0.1936" y="-5" relative="1" as="geometry">
            <mxPoint x="-5" y="-17" as="offset" />
          </mxGeometry>
        </mxCell>
        <mxCell id="zvaevBFsoiHge6Q9c9Pc-29" value="" style="endArrow=classic;startArrow=classic;html=1;rounded=0;exitX=1;exitY=0.5;exitDx=0;exitDy=0;entryX=0;entryY=0.5;entryDx=0;entryDy=0;" edge="1" parent="1" source="zvaevBFsoiHge6Q9c9Pc-4" target="zvaevBFsoiHge6Q9c9Pc-3">
          <mxGeometry width="50" height="50" relative="1" as="geometry">
            <mxPoint x="410" y="132" as="sourcePoint" />
            <mxPoint x="460" y="82" as="targetPoint" />
          </mxGeometry>
        </mxCell>
        <mxCell id="zvaevBFsoiHge6Q9c9Pc-30" value="ws" style="edgeLabel;html=1;align=center;verticalAlign=middle;resizable=0;points=[];" vertex="1" connectable="0" parent="zvaevBFsoiHge6Q9c9Pc-29">
          <mxGeometry x="-0.1597" y="-4" relative="1" as="geometry">
            <mxPoint x="8" y="-14" as="offset" />
          </mxGeometry>
        </mxCell>
      </root>
    </mxGraphModel>
  </diagram>
</mxfile>
